<?xml version="1.0" encoding="UTF-8" standalone="no"?>
<!-- Created with Inkscape (http://www.inkscape.org/) -->

<svg
   xmlns:dc="http://purl.org/dc/elements/1.1/"
   xmlns:cc="http://creativecommons.org/ns#"
   xmlns:rdf="http://www.w3.org/1999/02/22-rdf-syntax-ns#"
   xmlns:svg="http://www.w3.org/2000/svg"
   xmlns="http://www.w3.org/2000/svg"
   xmlns:sodipodi="http://sodipodi.sourceforge.net/DTD/sodipodi-0.dtd"
   xmlns:inkscape="http://www.inkscape.org/namespaces/inkscape"
   width="744.09448819"
   height="1052.3622047"
   id="svg2"
   version="1.1"
   inkscape:version="0.48.4 r9939"
   sodipodi:docname="New document 1">
  <defs
     id="defs4" />
  <sodipodi:namedview
     id="base"
     pagecolor="#ffffff"
     bordercolor="#666666"
     borderopacity="1.0"
     inkscape:pageopacity="0.0"
     inkscape:pageshadow="2"
     inkscape:zoom="7.9195959"
     inkscape:cx="409.19614"
     inkscape:cy="893.44603"
     inkscape:document-units="px"
     inkscape:current-layer="layer1"
     showgrid="true"
     inkscape:window-width="2560"
     inkscape:window-height="1387"
     inkscape:window-x="1920"
     inkscape:window-y="0"
     inkscape:window-maximized="1">
    <inkscape:grid
       type="xygrid"
       id="grid3784" />
  </sodipodi:namedview>
  <metadata
     id="metadata7">
    <rdf:RDF>
      <cc:Work
         rdf:about="">
        <dc:format>image/svg+xml</dc:format>
        <dc:type
           rdf:resource="http://purl.org/dc/dcmitype/StillImage" />
        <dc:title></dc:title>
      </cc:Work>
    </rdf:RDF>
  </metadata>
  <g
     inkscape:label="Layer 1"
     inkscape:groupmode="layer"
     id="layer1">
    <path
       style="fill:#0b7d43;fill-opacity:1;fill-rule:evenodd;stroke:none"
       d="m 355.34312,79.996624 c 0,0 -7.38036,0.42566 -10.2156,2.485579 -2.83523,2.05993 -5.52072,8.947522 -5.52072,8.947522 0,0 -6.22104,-3.993679 -9.72558,-3.993687 -3.50453,-5e-6 -9.72557,3.993665 -9.72557,3.993665 0,0 -2.68549,-6.887585 -5.52073,-8.947499 -2.83523,-2.05992 -10.21558,-2.485592 -10.21558,-2.485592 0,0 1.87581,-7.150679 0.79285,-10.483688 -1.08296,-3.333007 -6.80359,-8.015446 -6.80359,-8.015446 0,0 5.72063,-4.682429 6.80359,-8.015449 1.08297,-3.333026 -0.79286,-10.483694 -0.79286,-10.483694 0,0 7.38036,-0.425676 10.2156,-2.485597 2.83524,-2.059921 5.52073,-8.947507 5.52073,-8.947507 0,0 6.22103,3.993676 9.72556,3.993679 3.50454,3e-6 9.72559,-3.993667 9.72559,-3.993667 0,0 2.68549,6.887584 5.52071,8.947489 2.83524,2.059937 10.21559,2.485608 10.21559,2.485608 0,0 -1.87581,7.15066 -0.79286,10.483677 1.08297,3.333027 6.80359,8.015462 6.80359,8.015462 0,0 -5.72063,4.682432 -6.80358,8.015444 -1.08297,3.333034 0.79286,10.483701 0.79286,10.483701 z"
       id="path2999"
       inkscape:connector-curvature="0"
       sodipodi:nodetypes="czczczczczczczczczczc"
       inkscape:export-filename="/home/isaac/rect3782.png"
       inkscape:export-xdpi="90"
       inkscape:export-ydpi="90" />
    <path
       sodipodi:type="star"
       style="fill:#0b7d43;fill-opacity:1;stroke:none"
       id="path3774"
       sodipodi:sides="4"
       sodipodi:cx="326.84748"
       sodipodi:cy="51.74295"
       sodipodi:r1="0.67997974"
       sodipodi:r2="0.48081829"
       sodipodi:arg1="-1.9513027"
       sodipodi:arg2="-1.1659045"
       inkscape:flatsided="true"
       inkscape:rounded="0"
       inkscape:randomized="0"
       d="m 326.59494,51.111605 0.88388,0.378807 -0.37881,0.883884 -0.88388,-0.378807 z"
       inkscape:export-filename="/home/isaac/rect3782.png"
       inkscape:export-xdpi="90"
       inkscape:export-ydpi="90" />
    <rect
       style="fill:#ffffff;fill-opacity:1;stroke:none"
       id="rect3782"
       width="30.70014"
       height="30.70014"
       x="-290.32068"
       y="171.96716"
       transform="matrix(-0.71401337,-0.70013206,0.71401337,-0.70013206,0,0)"
       inkscape:export-xdpi="90"
       inkscape:export-ydpi="90" />
    <path
       style="fill:#0b7d43;fill-opacity:1;fill-rule:evenodd;stroke:none"
       d="M 353.375 112.625 C 353.375 112.625 350.67899 119.53383 347.84375 121.59375 C 345.00851 123.65367 337.625 124.0625 337.625 124.0625 C 337.625 124.0625 339.52047 131.22947 338.4375 134.5625 C 337.35454 137.89552 331.625 142.5625 331.625 142.5625 C 331.625 142.5625 337.35454 147.26074 338.4375 150.59375 C 339.52046 153.92675 337.625 161.0625 337.625 161.0625 C 337.625 161.0625 345.00852 161.50258 347.84375 163.5625 C 350.67899 165.62241 353.375 172.5 353.375 172.5 C 353.375 172.5 359.58922 168.49999 363.09375 168.5 C 366.59829 168.50001 372.8125 172.5 372.8125 172.5 C 372.8125 172.5 375.50852 165.62243 378.34375 163.5625 C 381.17899 161.50259 388.5625 161.0625 388.5625 161.0625 C 388.5625 161.0625 386.66703 153.92679 387.75 150.59375 C 388.83295 147.26074 394.5625 142.5625 394.5625 142.5625 C 394.5625 142.5625 388.83297 137.89553 387.75 134.5625 C 386.66705 131.22948 388.5625 124.0625 388.5625 124.0625 C 388.5625 124.0625 381.17899 123.65369 378.34375 121.59375 C 375.50853 119.53385 372.8125 112.625 372.8125 112.625 C 372.8125 112.625 366.59829 116.625 363.09375 116.625 C 359.58922 116.625 353.375 112.625 353.375 112.625 z M 363.28125 120.9375 L 385.21875 142.4375 L 363.28125 163.9375 L 341.375 142.4375 L 363.28125 120.9375 z "
       id="path2999-5"
       inkscape:export-xdpi="90"
       inkscape:export-ydpi="90" />
  </g>
</svg>
